Basic.Instinct.1992.1080p.BRRip.x264.aac.mp4.anoXmous

Format                           : MPEG-4
Format profile                   : Base Media
Codec ID                         : isom
File size                        : 896 MiB
Duration                         : 2h 8mn
Overall bit rate mode            : Variable
Overall bit rate                 : 976 Kbps


Video
ID                               : 1
Format                           : AVC
Format/Info                      : Advanced Video Codec
Format profile                   : High@L4.1
Format settings, CABAC           : Yes
Format settings, ReFrames        : 4 frames
Codec ID                         : avc1
Codec ID/Info                    : Advanced Video Coding
Duration                         : 2h 8mn
Bit rate                         : 905 Kbps
Maximum bit rate                 : 3 639 Kbps
Width                            : 1 920 pixels
Height                           : 820 pixels
Display aspect ratio             : 2.35:1
Frame rate mode                  : Constant
Frame rate                       : 23.976 fps
Color space                      : YUV
Chroma subsampling               : 4:2:0
Bit depth                        : 8 bits
Scan type                        : Progressive
Bits/(Pixel*Frame)               : 0.024
Stream size                      : 830 MiB (93%)
Writing library                  : x264 core 120 r2120 0c7dab9


Audio
ID                               : 2
Format                           : AAC
Format/Info                      : Advanced Audio Codec
Format profile                   : LC
Codec ID                         : 40
Duration                         : 2h 8mn
Bit rate mode                    : Variable
Bit rate                         : 68.9 Kbps
Maximum bit rate                 : 89.4 Kbps
Channel(s)                       : 2 channels
Channel positions                : Front: L R
Sampling rate                    : 48.0 KHz 
Compression mode                 : Lossy
Stream size                      : 63.2 MiB (7%)


Menu
00:00:00.000                     : Sex Crimes
00:07:20.857                     : An Amateur
00:15:36.810                     : Written Alibi
00:21:01.009                     : Nothing to Hide
00:29:34.773                     : Innocent Test
00:35:33.005                     : Internal Affairs
00:40:29.176                     : Reckless Pursuit
00:46:48.138                     : Rough Edges
01:02:07.515                     : Playing Games
01:11:34.415                     : Pretty Good Beginning
01:20:44.881                     : Deadly Chase
01:28:39.772                     : Mind Manipulation
01:34:23.074                     : Personal Files
01:41:37.299                     : Researching Records
01:50:21.448                     : Killer Story
01:58:32.605                     : Happily Ever After
02:03:22.205                     : End Credits

                              SUB:
Basic.Instinct.1992.1080p.BRRip.x264.aac.mp4.anoXmous_eng.srt
Basic.Instinct.1992.1080p.BRRip.x264.aac.mp4.anoXmous_swe.srt

           http://www.imdb.com/title/tt0103772/

+++++++++ This work very fine with PSP and XBOX :) +++++++++++